# File created by Blade
# Date/Time:  Thu Sep 25 15:55:53 2014
# Frame Rate: 120.000 fps
#------------------------------------------------------
:FULLY-SPECIFIED
:DEGREES
754
root -2.355761 32.829326 3.020958 13.942646 -3.449188 -2.914189
Spine -14.212939 6.371940 5.102603
Head -8.755020 -5.370425 8.406472
LeftShoulder -12.995199 28.014015 14.461846
LeftArm 26.485654 -1.088348 -46.722499
LeftForeArm 5.690417 -0.000000 13.045753
LeftHand -22.202470 -0.000000 -21.121414
LeftHandThumb1 -26.253704 0.000000 33.147579
RightShoulder -19.207885 5.516999 -26.754117
RightArm -7.787435 -7.145692 53.432533
RightForeArm -27.590389 -0.000000 15.908902
RightHand -5.802907 0.000000 14.760145
RightHandThumb1 -24.326973 -0.000000 -32.862282
LeftUpLeg -6.584084 11.919461 -1.256831
LeftLeg -1.329146 -0.000000 0.000000
LeftFoot -9.513302 -2.995986 -22.420308
LeftToeBase 5.091975 -0.000000 -0.000000
RightUpLeg -8.308195 -1.134266 3.504571
RightLeg 2.467940 -0.000000 -0.000000
RightFoot -9.160553 2.634897 -3.343167
RightToeBase -6.114047 -0.000000 0.000000
755
root -2.313968 32.830010 3.046482 13.838239 -3.556293 -2.923699
Spine -14.233468 6.461624 4.989110
Head -8.772929 -5.408068 8.457740
LeftShoulder -13.165487 28.125640 15.045745
LeftArm 26.250435 -2.771640 -45.773084
LeftForeArm 5.950000 -0.000000 13.090156
LeftHand -22.522090 -0.000000 -20.511297
LeftHandThumb1 -26.253704 0.000000 33.147579
RightShoulder -19.210068 5.515971 -27.301209
RightArm -7.672654 -6.116307 51.581587
RightForeArm -27.752691 -0.000000 16.104100
RightHand -6.189204 -0.000000 14.552129
RightHandThumb1 -24.326973 -0.000000 -32.862282
LeftUpLeg -6.420247 12.116872 -1.305367
LeftLeg -1.337778 -0.000000 0.000000
LeftFoot -9.454663 -3.201624 -22.561446
LeftToeBase 5.161682 -0.000000 -0.000000
RightUpLeg -8.140545 -1.000534 3.385089
RightLeg 2.404374 -0.000000 -0.000000
RightFoot -9.122140 2.692725 -3.317062
RightToeBase -6.204192 -0.000000 0.000000
756
root -2.278919 32.833253 3.064785 13.776235 -3.735006 -3.006261
Spine -14.253249 6.533921 4.984919
Head -8.799225 -5.354673 8.428572
LeftShoulder -13.437407 28.289399 15.536951
LeftArm 26.023058 -4.700904 -44.946874
LeftForeArm 6.615526 0.000000 13.100118
LeftHand -22.770545 -0.000000 -19.902232
LeftHandThumb1 -26.253704 0.000000 33.147579
RightShoulder -19.251160 5.607832 -27.924727
RightArm -7.444560 -5.283346 49.798473
RightForeArm -27.992253 -0.000000 16.267928
RightHand -6.577623 -0.000000 14.182385
RightHandThumb1 -24.326973 -0.000000 -32.862282
LeftUpLeg -6.292819 12.292305 -1.290426
LeftLeg -1.363655 -0.000000 0.000000
LeftFoot -9.464472 -3.269871 -22.613475
LeftToeBase 5.324328 -0.000000 -0.000000
RightUpLeg -8.087530 -0.716607 3.318376
RightLeg 2.470679 -0.000000 -0.000000
RightFoot -9.072416 2.751345 -3.137237
RightToeBase -6.214149 -0.000000 0.000000
757
root -2.243009 32.837401 3.079118 13.722767 -3.936959 -3.047920
Spine -14.272290 6.618138 4.910756
Head -8.836483 -5.300017 8.453526
LeftShoulder -13.687114 28.317018 16.044289
LeftArm 25.636758 -6.024876 -43.746319
LeftForeArm 6.817194 -0.000000 13.206734
LeftHand -23.032940 -0.000000 -19.200332
LeftHandThumb1 -26.253704 0.000000 33.147579
RightShoulder -19.224518 5.763619 -28.548798
RightArm -7.364656 -4.406936 48.057460
RightForeArm -28.275280 -0.000000 16.509132
RightHand -6.914509 0.000000 13.619943
RightHandThumb1 -24.326973 -0.000000 -32.862282
LeftUpLeg -6.176985 12.459262 -1.319126
LeftLeg -1.399904 -0.000000 0.000000
LeftFoot -9.395124 -3.335167 -22.691614
LeftToeBase 5.238342 -0.000000 -0.000000
RightUpLeg -8.041274 -0.491601 3.222573
RightLeg 2.505754 -0.000000 -0.000000
RightFoot -9.034505 2.846352 -3.036914
RightToeBase -6.170566 -0.000000 0.000000
758
root -2.209232 32.839611 3.093234 13.628299 -4.131685 -3.086987
Spine -14.241251 6.757384 4.807426
Head -8.861334 -5.319125 8.524255
LeftShoulder -13.859227 28.409975 16.621006
LeftArm 25.347491 -7.512485 -42.672475
LeftForeArm 7.179929 -0.000000 13.227442
LeftHand -23.328252 -0.000000 -18.573022
LeftHandThumb1 -26.253704 0.000000 33.147579
RightShoulder -19.163196 5.825357 -29.136951
RightArm -7.372011 -3.412189 46.311461
RightForeArm -28.512261 -0.000000 16.917852
RightHand -7.267087 -0.000000 13.437571
RightHandThumb1 -24.326973 -0.000000 -32.862282
LeftUpLeg -6.043776 12.757434 -1.351327
LeftLeg -1.393315 -0.000000 0.000000
LeftFoot -9.328192 -3.533737 -22.711471
LeftToeBase 5.287998 -0.000000 -0.000000
RightUpLeg -7.977663 -0.347418 3.154352
RightLeg 2.586165 -0.000000 -0.000000
RightFoot -9.050551 2.915228 -3.055644
RightToeBase -6.116029 -0.000000 0.000000
759
root -2.180569 32.843097 3.117845 13.561611 -4.299461 -3.121898
Spine -14.287294 6.794867 4.702753
Head -8.850169 -5.296058 8.661236
LeftShoulder -14.154364 28.398809 17.173955
LeftArm 24.975020 -8.803986 -41.509789
LeftForeArm 7.642694 -0.000000 13.237241
LeftHand -23.399801 -0.000000 -18.012184
LeftHandThumb1 -26.253704 0.000000 33.147579
RightShoulder -19.068494 5.911583 -29.809944
RightArm -7.370186 -2.530914 44.757014
RightForeArm -28.956067 -0.000000 17.210607
RightHand -7.551292 -0.000000 13.211534
RightHandThumb1 -24.326973 -0.000000 -32.862282
LeftUpLeg -5.890680 13.017423 -1.367281
LeftLeg -1.446189 -0.000000 0.000000
LeftFoot -9.220039 -3.756030 -22.841144
LeftToeBase 5.433990 -0.000000 -0.000000
RightUpLeg -7.920721 -0.250186 3.101228
RightLeg 2.661259 -0.000000 -0.000000
RightFoot -9.054386 2.980519 -3.097836
RightToeBase -6.101674 -0.000000 0.000000
760
root -2.152309 32.845324 3.137085 13.483734 -4.447863 -3.143317
Spine -14.292075 6.819282 4.582436
Head -8.876185 -5.265292 8.783058
LeftShoulder -14.399991 28.309380 17.791545
LeftArm 24.537234 -10.057327 -40.386029
LeftForeArm 7.783111 -0.000000 13.261779
LeftHand -23.697530 -0.000000 -17.538400
LeftHandThumb1 -26.253704 0.000000 33.147579
RightShoulder -19.000178 6.114962 -30.520584
RightArm -7.450535 -1.775413 43.244439
RightForeArm -29.495833 0.000000 17.606723
RightHand -7.812541 -0.000000 12.703801
RightHandThumb1 -24.326973 -0.000000 -32.862282
LeftUpLeg -5.742062 13.252416 -1.394219
LeftLeg -1.492604 -0.000000 0.000000
LeftFoot -9.132956 -3.938169 -22.923476
LeftToeBase 5.459107 -0.000000 -0.000000
RightUpLeg -7.868799 -0.232305 3.046123
RightLeg 2.746583 -0.000000 -0.000000
RightFoot -9.101496 3.132485 -3.099677
RightToeBase -6.000701 -0.000000 0.000000
761
root -2.126239 32.848409 3.152853 13.427705 -4.596808 -3.174325
Spine -14.302965 6.822691 4.491729
Head -8.910102 -5.224481 8.883811
LeftShoulder -14.669951 28.242103 18.359410
LeftArm 24.089188 -11.367764 -39.312255
LeftForeArm 8.329575 -0.000000 13.281381
LeftHand -23.932640 -0.000000 -16.959163
LeftHandThumb1 -26.253704 0.000000 33.147579
RightShoulder -19.081668 6.389570 -31.298345
RightArm -7.292750 -1.445303 41.782262
RightForeArm -29.525206 0.000000 17.770287
RightHand -7.970478 -0.000000 12.306201
RightHandThumb1 -24.326973 -0.000000 -32.862282
LeftUpLeg -5.634774 13.497882 -1.421875
LeftLeg -1.512946 -0.000000 0.000000
LeftFoot -9.068632 -4.106976 -22.968731
LeftToeBase 5.587666 -0.000000 -0.000000
RightUpLeg -7.837697 -0.174010 3.002445
RightLeg 2.820507 -0.000000 -0.000000
RightFoot -9.113456 3.226056 -3.128055
RightToeBase -5.986035 -0.000000 0.000000
762
root -2.099483 32.851820 3.168721 13.348422 -4.710448 -3.171170
Spine -14.307446 6.838400 4.347056
Head -8.910767 -5.261311 9.022135
LeftShoulder -14.801978 28.064297 19.022081
LeftArm 23.480211 -12.503455 -38.200018
LeftForeArm 8.495125 -0.000000 13.408763
LeftHand -24.394642 -0.000000 -16.121636
LeftHandThumb1 -26.253704 0.000000 33.147579
RightShoulder -19.059644 6.674693 -31.985144
RightArm -7.350920 -0.879843 40.246222
RightForeArm -29.888355 -0.000000 18.128886
RightHand -8.528174 0.000000 11.830298
RightHandThumb1 -24.326973 -0.000000 -32.862282
LeftUpLeg -5.485512 13.628402 -1.456215
LeftLeg -1.584135 -0.000000 0.000000
LeftFoot -8.915818 -4.228927 -23.153836
LeftToeBase 5.427407 -0.000000 -0.000000
RightUpLeg -7.785304 -0.199127 2.942504
RightLeg 2.899100 -0.000000 -0.000000
RightFoot -9.162258 3.342264 -3.137063
RightToeBase -5.878302 -0.000000 0.000000
763
root -2.068352 32.854038 3.188509 13.259947 -4.813043 -3.142699
Spine -14.284005 6.837103 4.237398
Head -8.972131 -5.257644 9.016556
LeftShoulder -14.865857 28.071399 19.647598
LeftArm 22.861580 -13.705703 -37.158066
LeftForeArm 8.567540 -0.000000 13.510478
LeftHand -24.804641 -0.000000 -15.409234
LeftHandThumb1 -26.253704 0.000000 33.147579
RightShoulder -19.116930 6.831410 -32.741965
RightArm -7.235563 -0.327596 38.827317
RightForeArm -30.075236 0.000000 18.418648
RightHand -8.893001 0.000000 11.761013
RightHandThumb1 -24.326973 -0.000000 -32.862282
LeftUpLeg -5.359268 13.912151 -1.551861
LeftLeg -1.593605 -0.000000 0.000000
LeftFoot -8.800506 -4.410791 -23.105501
LeftToeBase 5.542358 -0.000000 -0.000000
RightUpLeg -7.692349 -0.294088 2.876986
RightLeg 2.926770 -0.000000 -0.000000
RightFoot -9.189277 3.321403 -3.371903
RightToeBase -5.836080 -0.000000 0.000000
764
root -2.046619 32.856924 3.211909 13.162826 -4.807669 -3.118694
Spine -14.267233 6.884802 4.073854
Head -9.066584 -5.421592 9.115311
LeftShoulder -14.881812 27.878517 20.334941
LeftArm 22.308292 -14.779469 -36.043580
LeftForeArm 8.391083 -0.000000 13.569864
LeftHand -25.115481 0.000000 -14.586134
LeftHandThumb1 -26.253704 0.000000 33.147579
RightShoulder -19.286288 6.968685 -33.466395
RightArm -7.259912 0.198846 37.410496
RightForeArm -30.294881 -0.000000 18.765453
RightHand -8.859401 -0.000000 11.256760
RightHandThumb1 -24.326973 -0.000000 -32.862282
LeftUpLeg -5.179042 13.915889 -1.580608
LeftLeg -1.680210 -0.000000 0.000000
LeftFoot -8.748335 -4.400459 -23.004507
LeftToeBase 5.699178 -0.000000 -0.000000
RightUpLeg -7.570864 -0.466176 2.843591
RightLeg 2.925469 -0.000000 -0.000000
RightFoot -9.231914 3.444169 -3.428706
RightToeBase -5.858630 -0.000000 0.000000
765
root -2.022710 32.861614 3.220962 13.072119 -4.914681 -3.134757
Spine -14.172083 6.766715 4.042436
Head -9.157912 -5.234352 9.113842
LeftShoulder -15.185959 27.684807 20.848643
LeftArm 21.652658 -16.052181 -35.113637
LeftForeArm 8.789591 -0.000000 13.770087
LeftHand -25.515131 -0.000000 -13.600007
LeftHandThumb1 -26.253704 0.000000 33.147579
RightShoulder -19.149557 7.486741 -34.235871
RightArm -7.485046 0.827281 36.021986
RightForeArm -30.753747 -0.000000 19.255403
RightHand -9.474242 -0.000000 11.188144
RightHandThumb1 -24.326973 -0.000000 -32.862282
LeftUpLeg -5.063128 14.103384 -1.613857
LeftLeg -1.691167 -0.000000 0.000000
LeftFoot -8.674702 -4.450870 -22.929284
LeftToeBase 5.661800 -0.000000 -0.000000
RightUpLeg -7.504967 -0.394121 2.806253
RightLeg 2.973713 -0.000000 -0.000000
RightFoot -9.230759 3.428852 -3.419532
RightToeBase -5.831868 -0.000000 0.000000
